<svg xmlns="http://www.w3.org/2000/svg" width="16" height="11.94" viewBox="0 0 16 11.94">
  <defs>
    <style>
      .cls-1 {
        fill: #fff;
        fill-rule: evenodd;
      }
    </style>
  </defs>
  <path id="Mail" class="cls-1" d="M358.609,2110.18c0.487,0.27,6.238,4.01,6.489,4.15a2.148,2.148,0,0,0,1.81,0c0.251-.14,6-3.88,6.489-4.15s0.95-1.12.054-1.12h-14.9C357.66,2109.06,358.121,2109.91,358.609,2110.18Zm15,2.06c-0.554.3-6.357,3.97-6.7,4.15a2.148,2.148,0,0,1-1.81,0c-0.339-.18-6.142-3.85-6.7-4.15-0.39-.21-0.386.03-0.386,0.22v7.56a1.185,1.185,0,0,0,.99.99H373a1.186,1.186,0,0,0,.991-0.99v-7.56C373.991,2112.27,373.994,2112.03,373.6,2112.24Z" transform="translate(-358 -2109.06)"/>
</svg>
